<svg xmlns="http://www.w3.org/2000/svg" width="816" height="432" font-family="Inter, Arial, sans-serif"><rect width="100%" height="100%" fill="#E8E7E3"/><text x="12" y="30" font-size="16" font-weight="700" fill="#1B1B1B">Ulm — thème clair</text><rect x="12" y="48" width="122" height="46" rx="4" fill="#E8E7E3" stroke="#D2D0CA"/><text x="12" y="110" font-size="10.5" fill="#1B1B1B">Fond de page</text><text x="12" y="124" font-size="10.5" fill="#44433E" font-family="monospace">#E8E7E3</text><rect x="144" y="48" width="122" height="46" rx="4" fill="#F8F7F4" stroke="#D2D0CA"/><text x="144" y="110" font-size="10.5" fill="#1B1B1B">Surface (cartes, fenêtres)</text><text x="144" y="124" font-size="10.5" fill="#44433E" font-family="monospace">#F8F7F4</text><rect x="276" y="48" width="122" height="46" rx="4" fill="#EFEEEA" stroke="#D2D0CA"/><text x="276" y="110" font-size="10.5" fill="#1B1B1B">Surface douce (en-têtes, survol)</text><text x="276" y="124" font-size="10.5" fill="#44433E" font-family="monospace">#EFEEEA</text><rect x="408" y="48" width="122" height="46" rx="4" fill="#D2D0CA" stroke="#D2D0CA"/><text x="408" y="110" font-size="10.5" fill="#1B1B1B">Bordure</text><text x="408" y="124" font-size="10.5" fill="#44433E" font-family="monospace">#D2D0CA</text><rect x="540" y="48" width="122" height="46" rx="4" fill="#9C9A93" stroke="#D2D0CA"/><text x="540" y="110" font-size="10.5" fill="#1B1B1B">Bordure forte</text><text x="540" y="124" font-size="10.5" fill="#44433E" font-family="monospace">#9C9A93</text><rect x="672" y="48" width="122" height="46" rx="4" fill="#1B1B1B" stroke="#D2D0CA"/><text x="672" y="110" font-size="10.5" fill="#1B1B1B">Encre (texte principal)</text><text x="672" y="124" font-size="10.5" fill="#44433E" font-family="monospace">#1B1B1B</text><rect x="12" y="140" width="122" height="46" rx="4" fill="#44433E" stroke="#D2D0CA"/><text x="12" y="202" font-size="10.5" fill="#1B1B1B">Texte secondaire</text><text x="12" y="216" font-size="10.5" fill="#44433E" font-family="monospace">#44433E</text><rect x="144" y="140" width="122" height="46" rx="4" fill="#5F5D57" stroke="#D2D0CA"/><text x="144" y="202" font-size="10.5" fill="#1B1B1B">Texte discret</text><text x="144" y="216" font-size="10.5" fill="#44433E" font-family="monospace">#5F5D57</text><rect x="276" y="140" width="122" height="46" rx="4" fill="#1B1B1B" stroke="#D2D0CA"/><text x="276" y="202" font-size="10.5" fill="#1B1B1B">Accent (action, sélection)</text><text x="276" y="216" font-size="10.5" fill="#44433E" font-family="monospace">#1B1B1B</text><rect x="408" y="140" width="122" height="46" rx="4" fill="#3A3A3A" stroke="#D2D0CA"/><text x="408" y="202" font-size="10.5" fill="#1B1B1B">Accent survolé</text><text x="408" y="216" font-size="10.5" fill="#44433E" font-family="monospace">#3A3A3A</text><rect x="540" y="140" width="122" height="46" rx="4" fill="#E0DED8" stroke="#D2D0CA"/><text x="540" y="202" font-size="10.5" fill="#1B1B1B">Accent doux (fond sélectionné)</text><text x="540" y="216" font-size="10.5" fill="#44433E" font-family="monospace">#E0DED8</text><rect x="672" y="140" width="122" height="46" rx="4" fill="#F8F7F4" stroke="#D2D0CA"/><text x="672" y="202" font-size="10.5" fill="#1B1B1B">Texte sur accent</text><text x="672" y="216" font-size="10.5" fill="#44433E" font-family="monospace">#F8F7F4</text><rect x="12" y="232" width="122" height="46" rx="4" fill="#1B1B1B" stroke="#D2D0CA"/><text x="12" y="294" font-size="10.5" fill="#1B1B1B">Accent en texte</text><text x="12" y="308" font-size="10.5" fill="#44433E" font-family="monospace">#1B1B1B</text><rect x="144" y="232" width="122" height="46" rx="4" fill="#E8590C" stroke="#D2D0CA"/><text x="144" y="294" font-size="10.5" fill="#1B1B1B">Signal (aujourd&#39;hui, alerte)</text><text x="144" y="308" font-size="10.5" fill="#44433E" font-family="monospace">#E8590C</text><rect x="276" y="232" width="122" height="46" rx="4" fill="#2E7D4F" stroke="#D2D0CA"/><text x="276" y="294" font-size="10.5" fill="#1B1B1B">Succès</text><text x="276" y="308" font-size="10.5" fill="#44433E" font-family="monospace">#2E7D4F</text><rect x="408" y="232" width="122" height="46" rx="4" fill="#A86E14" stroke="#D2D0CA"/><text x="408" y="294" font-size="10.5" fill="#1B1B1B">Avertissement</text><text x="408" y="308" font-size="10.5" fill="#44433E" font-family="monospace">#A86E14</text><rect x="540" y="232" width="122" height="46" rx="4" fill="#C7362B" stroke="#D2D0CA"/><text x="540" y="294" font-size="10.5" fill="#1B1B1B">Danger</text><text x="540" y="308" font-size="10.5" fill="#44433E" font-family="monospace">#C7362B</text><rect x="672" y="232" width="122" height="46" rx="4" fill="#DCDAD5" stroke="#D2D0CA"/><text x="672" y="294" font-size="10.5" fill="#1B1B1B">Navigation — fond</text><text x="672" y="308" font-size="10.5" fill="#44433E" font-family="monospace">#DCDAD5</text><rect x="12" y="324" width="122" height="46" rx="4" fill="#1B1B1B" stroke="#D2D0CA"/><text x="12" y="386" font-size="10.5" fill="#1B1B1B">Navigation — texte</text><text x="12" y="400" font-size="10.5" fill="#44433E" font-family="monospace">#1B1B1B</text><rect x="144" y="324" width="122" height="46" rx="4" fill="#F8F7F4" stroke="#D2D0CA"/><text x="144" y="386" font-size="10.5" fill="#1B1B1B">Navigation — actif</text><text x="144" y="400" font-size="10.5" fill="#44433E" font-family="monospace">#F8F7F4</text><rect x="276" y="324" width="122" height="46" rx="4" fill="#1B1B1B" stroke="#D2D0CA"/><text x="276" y="386" font-size="10.5" fill="#1B1B1B">Info-bulle, aplat d&#39;encre</text><text x="276" y="400" font-size="10.5" fill="#44433E" font-family="monospace">#1B1B1B</text><rect x="408" y="324" width="122" height="46" rx="4" fill="#E8590C" stroke="#D2D0CA"/><text x="408" y="386" font-size="10.5" fill="#1B1B1B">Anneau de focus</text><text x="408" y="400" font-size="10.5" fill="#44433E" font-family="monospace">#E8590C</text><rect x="540" y="324" width="122" height="46" rx="4" fill="#FFD8BF" stroke="#D2D0CA"/><text x="540" y="386" font-size="10.5" fill="#1B1B1B">Sélection de texte</text><text x="540" y="400" font-size="10.5" fill="#44433E" font-family="monospace">#FFD8BF</text></svg>
