<svg xmlns="http://www.w3.org/2000/svg" width="816" height="432" font-family="Inter, Arial, sans-serif"><rect width="100%" height="100%" fill="#16150F"/><text x="12" y="30" font-size="16" font-weight="700" fill="#F0EDE6">Bauhaus — thème sombre</text><rect x="12" y="48" width="122" height="46" rx="4" fill="#16150F" stroke="#3D3A32"/><text x="12" y="110" font-size="10.5" fill="#F0EDE6">Fond de page</text><text x="12" y="124" font-size="10.5" fill="#C9C3B6" font-family="monospace">#16150F</text><rect x="144" y="48" width="122" height="46" rx="4" fill="#1F1E19" stroke="#3D3A32"/><text x="144" y="110" font-size="10.5" fill="#F0EDE6">Surface (cartes, fenêtres)</text><text x="144" y="124" font-size="10.5" fill="#C9C3B6" font-family="monospace">#1F1E19</text><rect x="276" y="48" width="122" height="46" rx="4" fill="#2A2822" stroke="#3D3A32"/><text x="276" y="110" font-size="10.5" fill="#F0EDE6">Surface douce (en-têtes, survol)</text><text x="276" y="124" font-size="10.5" fill="#C9C3B6" font-family="monospace">#2A2822</text><rect x="408" y="48" width="122" height="46" rx="4" fill="#3D3A32" stroke="#3D3A32"/><text x="408" y="110" font-size="10.5" fill="#F0EDE6">Bordure</text><text x="408" y="124" font-size="10.5" fill="#C9C3B6" font-family="monospace">#3D3A32</text><rect x="540" y="48" width="122" height="46" rx="4" fill="#E8E4DA" stroke="#3D3A32"/><text x="540" y="110" font-size="10.5" fill="#F0EDE6">Bordure forte</text><text x="540" y="124" font-size="10.5" fill="#C9C3B6" font-family="monospace">#E8E4DA</text><rect x="672" y="48" width="122" height="46" rx="4" fill="#F0EDE6" stroke="#3D3A32"/><text x="672" y="110" font-size="10.5" fill="#F0EDE6">Encre (texte principal)</text><text x="672" y="124" font-size="10.5" fill="#C9C3B6" font-family="monospace">#F0EDE6</text><rect x="12" y="140" width="122" height="46" rx="4" fill="#C9C3B6" stroke="#3D3A32"/><text x="12" y="202" font-size="10.5" fill="#F0EDE6">Texte secondaire</text><text x="12" y="216" font-size="10.5" fill="#C9C3B6" font-family="monospace">#C9C3B6</text><rect x="144" y="140" width="122" height="46" rx="4" fill="#A8A296" stroke="#3D3A32"/><text x="144" y="202" font-size="10.5" fill="#F0EDE6">Texte discret</text><text x="144" y="216" font-size="10.5" fill="#C9C3B6" font-family="monospace">#A8A296</text><rect x="276" y="140" width="122" height="46" rx="4" fill="#F26A5D" stroke="#3D3A32"/><text x="276" y="202" font-size="10.5" fill="#F0EDE6">Accent (action, sélection)</text><text x="276" y="216" font-size="10.5" fill="#C9C3B6" font-family="monospace">#F26A5D</text><rect x="408" y="140" width="122" height="46" rx="4" fill="#F58579" stroke="#3D3A32"/><text x="408" y="202" font-size="10.5" fill="#F0EDE6">Accent survolé</text><text x="408" y="216" font-size="10.5" fill="#C9C3B6" font-family="monospace">#F58579</text><rect x="540" y="140" width="122" height="46" rx="4" fill="#3A3218" stroke="#3D3A32"/><text x="540" y="202" font-size="10.5" fill="#F0EDE6">Accent doux (fond sélectionné)</text><text x="540" y="216" font-size="10.5" fill="#C9C3B6" font-family="monospace">#3A3218</text><rect x="672" y="140" width="122" height="46" rx="4" fill="#141414" stroke="#3D3A32"/><text x="672" y="202" font-size="10.5" fill="#F0EDE6">Texte sur accent</text><text x="672" y="216" font-size="10.5" fill="#C9C3B6" font-family="monospace">#141414</text><rect x="12" y="232" width="122" height="46" rx="4" fill="#F27B6F" stroke="#3D3A32"/><text x="12" y="294" font-size="10.5" fill="#F0EDE6">Accent en texte</text><text x="12" y="308" font-size="10.5" fill="#C9C3B6" font-family="monospace">#F27B6F</text><rect x="144" y="232" width="122" height="46" rx="4" fill="#F26A5D" stroke="#3D3A32"/><text x="144" y="294" font-size="10.5" fill="#F0EDE6">Signal (aujourd&#39;hui, alerte)</text><text x="144" y="308" font-size="10.5" fill="#C9C3B6" font-family="monospace">#F26A5D</text><rect x="276" y="232" width="122" height="46" rx="4" fill="#6CC28A" stroke="#3D3A32"/><text x="276" y="294" font-size="10.5" fill="#F0EDE6">Succès</text><text x="276" y="308" font-size="10.5" fill="#C9C3B6" font-family="monospace">#6CC28A</text><rect x="408" y="232" width="122" height="46" rx="4" fill="#E0B45C" stroke="#3D3A32"/><text x="408" y="294" font-size="10.5" fill="#F0EDE6">Avertissement</text><text x="408" y="308" font-size="10.5" fill="#C9C3B6" font-family="monospace">#E0B45C</text><rect x="540" y="232" width="122" height="46" rx="4" fill="#F26A5D" stroke="#3D3A32"/><text x="540" y="294" font-size="10.5" fill="#F0EDE6">Danger</text><text x="540" y="308" font-size="10.5" fill="#C9C3B6" font-family="monospace">#F26A5D</text><rect x="672" y="232" width="122" height="46" rx="4" fill="#16150F" stroke="#3D3A32"/><text x="672" y="294" font-size="10.5" fill="#F0EDE6">Navigation — fond</text><text x="672" y="308" font-size="10.5" fill="#C9C3B6" font-family="monospace">#16150F</text><rect x="12" y="324" width="122" height="46" rx="4" fill="#F0EDE6" stroke="#3D3A32"/><text x="12" y="386" font-size="10.5" fill="#F0EDE6">Navigation — texte</text><text x="12" y="400" font-size="10.5" fill="#C9C3B6" font-family="monospace">#F0EDE6</text><rect x="144" y="324" width="122" height="46" rx="4" fill="#F0EDE6" stroke="#3D3A32"/><text x="144" y="386" font-size="10.5" fill="#F0EDE6">Navigation — actif</text><text x="144" y="400" font-size="10.5" fill="#C9C3B6" font-family="monospace">#F0EDE6</text><rect x="276" y="324" width="122" height="46" rx="4" fill="#2A2822" stroke="#3D3A32"/><text x="276" y="386" font-size="10.5" fill="#F0EDE6">Info-bulle, aplat d&#39;encre</text><text x="276" y="400" font-size="10.5" fill="#C9C3B6" font-family="monospace">#2A2822</text><rect x="408" y="324" width="122" height="46" rx="4" fill="#F5C242" stroke="#3D3A32"/><text x="408" y="386" font-size="10.5" fill="#F0EDE6">Anneau de focus</text><text x="408" y="400" font-size="10.5" fill="#C9C3B6" font-family="monospace">#F5C242</text><rect x="540" y="324" width="122" height="46" rx="4" fill="#5A4A10" stroke="#3D3A32"/><text x="540" y="386" font-size="10.5" fill="#F0EDE6">Sélection de texte</text><text x="540" y="400" font-size="10.5" fill="#C9C3B6" font-family="monospace">#5A4A10</text></svg>
